<svg xmlns="http://www.w3.org/2000/svg" fill="none" viewBox="0 0 24 24" id="Mistral-Ai--Streamline-Svg-Logos" height="24" width="24">
  <desc>
    Mistral Ai Streamline Icon: https://streamlinehq.com
  </desc>
  <path fill="#000000" d="M10.203975 9.5443h0.51285l0.2116 0.7652 0.0726 0.298575h0.0133l0.0717 -0.298575 0.212575 -0.7652h0.51285v2.15925h-0.41355v-0.66845l0.00025 -0.03485c0.003575 -0.255525 0.04345 -0.7454 0.06525 -0.968175h-0.009925l-0.16575 0.579575 -0.1681 0.520125h-0.2372l-0.17105 -0.520125 -0.154575 -0.579575h-0.011475l0.005275 0.05165c0.02485 0.2522 0.060225 0.724825 0.060225 0.951375v0.66845h-0.40685v-2.15925Zm2.043725 1.7495h0.5045v-1.33975h-0.5045v-0.409775h1.49785v0.409775h-0.50435v1.33975h0.50435v0.409775h-1.49785v-0.409775Zm1.910575 0.1377 0.2806 -0.335625c0.163325 0.13365 0.364825 0.225325 0.574275 0.225325 0.207475 0 0.3033 -0.0803 0.3033 -0.18585 0 -0.1555 -0.128425 -0.193075 -0.332825 -0.27865l-0.28145 -0.120075c-0.239325 -0.0909 -0.457925 -0.274375 -0.457925 -0.588675 0 -0.3576 0.3223 -0.643425 0.791775 -0.643425 0.259825 0 0.522375 0.0974 0.71745 0.2827l-0.246325 0.30805c-0.1522 -0.1092 -0.286825 -0.168675 -0.4979 -0.168675 -0.160975 0 -0.2703 0.06675 -0.2703 0.192825 0 0.1299 0.1448 0.177475 0.352025 0.2551l0.264275 0.111925c0.28295 0.106 0.4615 0.282375 0.4615 0.5871 0 0.35895 -0.30125 0.669725 -0.83605 0.669725 -0.291925 0 -0.593375 -0.106725 -0.822425 -0.311775Zm2.572 -1.47745h-0.647675v-0.409775h1.784225v0.409775H17.21925v1.749525h-0.488975v-1.749525Zm1.959 -0.021925h0.238375c0.2568 0 0.3946 0.071675 0.3946 0.2849 0 0.211375 -0.1378 0.321875 -0.3946 0.321875h-0.238375v-0.606775Zm1.215975 1.77145 -0.488575 -0.86385c0.23065 -0.10425 0.384975 -0.305425 0.384975 -0.6227 0 -0.5086 -0.3691 -0.66955 -0.8205 -0.6727l-0.7818 -0.00005v2.1593h0.489925v-0.7768h0.256625l0.412475 0.7768h0.546875Zm0.811575 -0.8943 0.051125 -0.198925 0.167625 -0.69635h0.01325c0.0371 0.16275 0.081275 0.338275 0.123425 0.50385l0.099825 0.391425h-0.45525Zm0.6834 0.89425h0.518425l-0.6729 -2.15925h-0.586025l-0.6729 2.15925h0.5003l0.1319 -0.513475h0.6502l0.131 0.513475Zm0.900325 -2.159225h0.487975v1.7495h0.96165v0.40975h-1.449625v-2.15925Z" stroke-width="0.25"></path>
  <path fill="#000000" d="m10.77175 14.273175 0.051125 -0.198925 0.167625 -0.696425h0.01325c0.0371 0.16275 0.081275 0.338325 0.123425 0.503925l0.099825 0.391425h-0.45525Zm0.6832 0.8951h0.5186l-0.673125 -2.16015h-0.586275l-0.673125 2.16015h0.500475l0.132 -0.5138h0.6504l0.13105 0.5138Zm0.7927 -0.410575h0.5045v-1.3398h-0.5045v-0.409775h1.49785v0.409775h-0.504375v1.3398h0.504375v0.409775h-1.49785v-0.409775Zm1.9326 0.624675h1.600325v0.37215H14.18025v-0.37215Z" stroke-width="0.25"></path>
  <path fill="#000000" d="M7.302475 8.245475h-1.4105v1.410525h1.4105v-1.410525Z" stroke-width="0.25"></path>
  <path fill="#f7d046" d="M8.007925 8.245475h-1.410525v1.410525h1.410525v-1.410525Z" stroke-width="0.25"></path>
  <path fill="#000000" d="M1.66052 8.245475H0.25v1.410525h1.41052v-1.410525Z" stroke-width="0.25"></path>
  <path fill="#000000" d="M1.66052 9.656H0.25v1.410525h1.41052V9.656Z" stroke-width="0.25"></path>
  <path fill="#000000" d="M1.66052 11.066475H0.25v1.4105h1.41052v-1.4105Z" stroke-width="0.25"></path>
  <path fill="#000000" d="M1.66052 12.477H0.25v1.4105h1.41052v-1.4105Z" stroke-width="0.25"></path>
  <path fill="#000000" d="M1.66052 13.887625H0.25v1.410525h1.41052v-1.410525Z" stroke-width="0.25"></path>
  <path fill="#f7d046" d="M2.36584 8.245475H0.9553225v1.410525h1.4105175v-1.410525Z" stroke-width="0.25"></path>
  <path fill="#f2a73b" d="M8.007925 9.656h-1.410525v1.410525h1.410525V9.656Z" stroke-width="0.25"></path>
  <path fill="#f2a73b" d="M2.36584 9.656H0.9553225v1.410525h1.4105175V9.656Z" stroke-width="0.25"></path>
  <path fill="#000000" d="M5.891975 9.656h-1.410525v1.410525h1.410525V9.656Z" stroke-width="0.25"></path>
  <path fill="#f2a73b" d="M6.5974 9.656h-1.4105v1.410525h1.4105V9.656Z" stroke-width="0.25"></path>
  <path fill="#f2a73b" d="M3.776375 9.656H2.365845v1.410525h1.41053V9.656Z" stroke-width="0.25"></path>
  <path fill="#ee792f" d="M5.186875 11.066475h-1.4105v1.4105h1.4105v-1.4105Z" stroke-width="0.25"></path>
  <path fill="#ee792f" d="M6.5974 11.066475h-1.4105v1.4105h1.4105v-1.4105Z" stroke-width="0.25"></path>
  <path fill="#ee792f" d="M3.776375 11.066475H2.365845v1.4105h1.41053v-1.4105Z" stroke-width="0.25"></path>
  <path fill="#000000" d="M4.481575 12.477h-1.410525v1.4105h1.410525v-1.4105Z" stroke-width="0.25"></path>
  <path fill="#eb5829" d="M5.186875 12.477h-1.4105v1.4105h1.4105v-1.4105Z" stroke-width="0.25"></path>
  <path fill="#ee792f" d="M8.007925 11.066475h-1.410525v1.4105h1.410525v-1.4105Z" stroke-width="0.25"></path>
  <path fill="#ee792f" d="M2.36584 11.066475H0.9553225v1.4105h1.4105175v-1.4105Z" stroke-width="0.25"></path>
  <path fill="#000000" d="M7.302475 12.477h-1.4105v1.4105h1.4105v-1.4105Z" stroke-width="0.25"></path>
  <path fill="#eb5829" d="M8.007925 12.477h-1.410525v1.4105h1.410525v-1.4105Z" stroke-width="0.25"></path>
  <path fill="#000000" d="M7.302475 13.887625h-1.4105v1.410525h1.4105v-1.410525Z" stroke-width="0.25"></path>
  <path fill="#eb5829" d="M2.36584 12.477H0.9553225v1.4105h1.4105175v-1.4105Z" stroke-width="0.25"></path>
  <path fill="#ea3326" d="M8.007925 13.887625h-1.410525v1.410525h1.410525v-1.410525Z" stroke-width="0.25"></path>
  <path fill="#ea3326" d="M2.36584 13.887625H0.9553225v1.410525h1.4105175v-1.410525Z" stroke-width="0.25"></path>
</svg>